<?xml version="1.0" ?><svg height="211px" version="1.1" viewBox="0 0 211 211" width="211px" xmlns="http://www.w3.org/2000/svg" xmlns:xlink="http://www.w3.org/1999/xlink"><title/><desc/><defs/><g fill="none" fill-rule="evenodd" id="Classic" stroke="none" stroke-width="1"><g fill="#000000" fill-rule="nonzero" id="Power-Ledger" transform="translate(-5240.000000, -6869.000000)"><g transform="translate(5223.000000, 6839.000000)"><path d="M49.7171934,63.1949652 L49.7171934,208.266202 L194.788431,208.266202 L194.788431,63.1949652 L49.7171934,63.1949652 Z M47.9346545,61.4124264 L196.570969,61.4124264 L196.570969,210.048741 L47.9346545,210.048741 L47.9346545,61.4124264 Z" id="Rectangle-21" transform="translate(122.252812, 135.730584) rotate(45.000000) translate(-122.252812, -135.730584) "/><path d="M49.7171934,63.1949652 L49.7171934,208.266202 L194.788431,208.266202 L194.788431,63.1949652 L49.7171934,63.1949652 Z M47.9346545,61.4124264 L196.570969,61.4124264 L196.570969,210.048741 L47.9346545,210.048741 L47.9346545,61.4124264 Z" id="Rectangle-21" transform="translate(122.252812, 135.730584) rotate(75.000000) translate(-122.252812, -135.730584) "/><path d="M49.7171934,63.1949652 L49.7171934,208.266202 L194.788431,208.266202 L194.788431,63.1949652 L49.7171934,63.1949652 Z M47.9346545,61.4124264 L196.570969,61.4124264 L196.570969,210.048741 L47.9346545,210.048741 L47.9346545,61.4124264 Z" id="Rectangle-21" transform="translate(122.252812, 135.730584) rotate(15.000000) translate(-122.252812, -135.730584) "/><path d="M103.660465,34.9943949 L29.462749,194.134755 L204.63842,178.737058 L103.660465,34.9943949 Z M207.874086,180.242059 L26.5419906,196.180897 L103.347332,31.4476627 L207.874086,180.242059 Z" id="Triangle-3" transform="translate(117.208038, 113.814280) rotate(-25.000000) translate(-117.208038, -113.814280) "/><path d="M124.983913,41.2515103 L50.7861976,200.39187 L225.961869,184.994174 L124.983913,41.2515103 Z M229.197534,186.499175 L47.8654392,202.438012 L124.670781,37.7047781 L229.197534,186.499175 Z" id="Triangle-3" transform="translate(138.531487, 120.071395) rotate(35.000000) translate(-138.531487, -120.071395) "/><path d="M96.7904462,131.365345 L74.7649766,214.468594 L108.035813,158.077105 L96.7904462,131.365345 Z M96.4059989,125.858061 L110.02634,158.211234 L69.7288421,226.512369 L96.4059989,125.858061 Z" id="Path"/><path d="M72.9392101,50.7324873 L69.8195868,45.209467 L69.8729581,45.1687977 L74.3704341,49.6418853 L77.6108962,55.3788404 L72.9392101,50.7324873 Z M77.6108962,55.3788404 L109.81194,112.387974 L138.567687,116.005081 L77.6108962,55.3788404 Z M143.529358,118.425782 L108.700518,114.044757 L69.6987479,44.9955323 L143.529358,118.425782 Z" id="Path"/><path d="M171.218794,50.581896 L174.442059,45.1187129 L174.503965,45.1445991 L172.878895,51.2760714 L169.530778,56.9508714 L171.218794,50.581896 Z M169.530778,56.9508714 L136.259941,113.34236 L147.505308,140.054121 L169.530778,56.9508714 Z M147.889755,145.561404 L134.269414,113.208232 L174.566912,44.907096 L147.889755,145.561404 Z" id="Path"/><path d="M220.450513,135.65114 L226.7934,135.710978 L226.801935,135.777533 L220.67939,137.435918 L214.09081,137.373763 L220.450513,135.65114 Z M214.09081,137.373763 L148.61893,136.756118 L131.10855,159.850771 L214.09081,137.373763 Z M126.531326,162.937354 L147.739825,134.965206 L227.039092,135.713295 L126.531326,162.937354 Z" id="Path"/><path d="M166.722559,216.175328 L134.521515,159.166194 L105.765769,155.549087 L166.722559,216.175328 Z M100.804097,153.128387 L135.632937,157.509411 L174.634707,226.558636 L100.804097,153.128387 Z" id="Path"/><path d="M30.1684219,134.144738 L95.6403021,134.762383 L113.150682,111.667729 L30.1684219,134.144738 Z M117.727906,108.581146 L96.5194069,136.553294 L17.2201393,135.805205 L117.727906,108.581146 Z" id="Path"/><path d="M36.8845746,183.140477 L69.5993573,165.022674 L69.5993573,134.003028 L36.8845746,183.140477 Z M71.3818961,128.109186 L71.3818961,166.073128 L31.3433315,188.24692 L71.3818961,128.109186 Z" id="Path"/><path d="M38.4327771,85.7762437 L70.4806456,105.049175 L97.3444473,89.5393522 L38.4327771,85.7762437 Z M103.339934,88.1361549 L70.4621959,107.118126 L31.239846,83.5306081 L103.339934,88.1361549 Z" id="Path"/><path d="M123.526778,38.4349098 L122.859864,75.8256439 L149.723665,91.335467 L123.526778,38.4349098 Z M153.936613,95.8261121 L121.058875,76.8441412 L121.87509,31.0828309 L153.936613,95.8261121 Z" id="Path"/><path d="M209.22157,85.2300302 L212.234162,83.5616241 L212.373306,83.7126157 L210.464825,86.5791448 L207.072576,88.4578091 L209.22157,85.2300302 Z M207.072576,88.4578091 L174.357793,106.575612 L174.357793,137.595258 L207.072576,88.4578091 Z M172.575254,143.4891 L172.575254,105.525158 L212.613819,83.3513658 L172.575254,143.4891 Z" id="Path"/><path d="M209.394209,186.069236 L212.345387,187.844014 L212.284196,188.040012 L208.847469,187.820484 L205.524373,185.822042 L209.394209,186.069236 Z M205.524373,185.822042 L173.476505,166.549111 L146.612703,182.058934 L205.524373,185.822042 Z M140.617217,183.462131 L173.494955,164.48016 L212.717305,188.067678 L140.617217,183.462131 Z" id="Path"/><path d="M91.447934,178.65458 L90.2597828,176.255293 L90.4874226,176.04173 L92.8060886,177.380413 L94.2334852,180.262819 L91.447934,178.65458 Z M120.430373,233.163376 L121.097287,195.772642 L94.2334852,180.262819 L120.430373,233.163376 Z M90.0205374,175.772174 L122.898275,194.754145 L122.082061,240.515455 L90.0205374,175.772174 Z" id="Path"/></g></g></g></svg>